<svg width="26" height="18" viewBox="0 0 26 18" fill="none" xmlns="http://www.w3.org/2000/svg">
<path d="M15.8247 0.199999V17H11.9367V10.112H4.30471V17H0.416708V0.199999H4.30471V6.824H11.9367V0.199999H15.8247ZM23.438 17.192C22.782 17.192 22.23 16.968 21.782 16.52C21.334 16.072 21.11 15.512 21.11 14.84C21.11 14.152 21.334 13.6 21.782 13.184C22.23 12.752 22.782 12.536 23.438 12.536C24.094 12.536 24.646 12.752 25.094 13.184C25.542 13.6 25.766 14.152 25.766 14.84C25.766 15.512 25.542 16.072 25.094 16.52C24.646 16.968 24.094 17.192 23.438 17.192Z" fill="#4B4B4B"/>
</svg>
